<svg width="512" height="512" viewBox="0 0 512 512" xmlns="http://www.w3.org/2000/svg">
  <defs>
    <linearGradient id="bgGrad512" x1="0%" y1="0%" x2="100%" y2="100%">
      <stop offset="0%" style="stop-color:#1e40af;stop-opacity:1" />
      <stop offset="30%" style="stop-color:#3b82f6;stop-opacity:1" />
      <stop offset="70%" style="stop-color:#2563eb;stop-opacity:1" />
      <stop offset="100%" style="stop-color:#1d4ed8;stop-opacity:1" />
    </linearGradient>
    <linearGradient id="cubaFlag512" x1="0%" y1="0%" x2="100%" y2="0%">
      <stop offset="0%" style="stop-color:#dc2626;stop-opacity:1" />
      <stop offset="33%" style="stop-color:#ffffff;stop-opacity:1" />
      <stop offset="66%" style="stop-color:#059669;stop-opacity:1" />
      <stop offset="100%" style="stop-color:#dc2626;stop-opacity:1" />
    </linearGradient>
    <filter id="shadow">
      <feDropShadow dx="4" dy="4" stdDeviation="8" flood-opacity="0.3"/>
    </filter>
  </defs>
  
  <!-- Fondo principal -->
  <rect width="512" height="512" fill="url(#bgGrad512)" rx="64"/>
  
  <!-- Contenedor principal del paquete -->
  <circle cx="256" cy="180" r="60" fill="white" opacity="0.95" filter="url(#shadow)"/>
  <rect x="126" y="240" width="260" height="160" fill="white" opacity="0.95" rx="20" filter="url(#shadow)"/>
  
  <!-- Emoji del paquete -->
  <text x="256" y="340" font-family="Arial, sans-serif" font-size="80" font-weight="bold" text-anchor="middle" fill="#1e40af">📦</text>
  
  <!-- Texto Packfy -->
  <text x="256" y="390" font-family="Arial, sans-serif" font-size="36" font-weight="bold" text-anchor="middle" fill="#1e40af">Packfy</text>
  <text x="256" y="420" font-family="Arial, sans-serif" font-size="20" font-weight="normal" text-anchor="middle" fill="#6b7280">Cuba</text>
  
  <!-- Bandera cubana decorativa -->
  <rect x="160" y="440" width="192" height="24" fill="url(#cubaFlag512)" rx="6" filter="url(#shadow)"/>
  
  <!-- Estrella central -->
  <polygon points="256,475 264,491 280,491 267,502 271,518 256,507 241,518 245,502 232,491 248,491" fill="#fbbf24" filter="url(#shadow)"/>
  
  <!-- Decoración adicional -->
  <circle cx="200" cy="120" r="8" fill="white" opacity="0.6"/>
  <circle cx="312" cy="140" r="6" fill="white" opacity="0.5"/>
  <circle cx="180" cy="160" r="4" fill="white" opacity="0.4"/>
</svg>
